<svg xmlns="http://www.w3.org/2000/svg" width="24" height="24" fill="none">
  <g fill="currentColor" clip-path="url(#a)">
    <path d="M21 .67h-8.44a2.34 2.34 0 0 0-2.32 2.37V4.5H3A2.38 2.38 0 0 0 .64 6.86V21A2.38 2.38 0 0 0 3 23.36h18A2.38 2.38 0 0 0 23.36 21V3A2.37 2.37 0 0 0 21 .67Zm-10.8 21H3a.67.67 0 0 1-.67-.67V6.82c0-.37.3-.67.67-.67h7.2v15.52ZM21.68 21c0 .37-.3.67-.68.67h-9.11V3c0-.38.3-.68.64-.68H21c.38 0 .68.3.68.68v18Z"/>
    <path d="M5.25 10.54h2.1c.45 0 .86-.38.86-.86a.85.85 0 0 0-.86-.87h-2.1a.87.87 0 0 0-.86.87c0 .48.41.86.86.86ZM5.25 14.74h2.1c.45 0 .86-.38.86-.87a.85.85 0 0 0-.86-.86h-2.1a.87.87 0 0 0-.86.86c0 .5.41.87.86.87ZM5.21 18.98h2.1c.45 0 .87-.38.87-.87a.85.85 0 0 0-.87-.86h-2.1a.87.87 0 0 0-.86.86c0 .49.41.87.86.87ZM17.85 5.51h-2.1a.87.87 0 0 0-.86.86c0 .5.37.87.86.87h2.1c.45 0 .86-.38.86-.87a.87.87 0 0 0-.86-.86ZM17.85 10.91h-2.1a.87.87 0 0 0-.86.86c0 .45.37.87.86.87h2.1c.45 0 .86-.38.86-.87-.03-.48-.41-.86-.86-.86ZM17.81 16.31h-2.1a.87.87 0 0 0-.86.87c0 .48.38.86.86.86h2.1c.45 0 .87-.38.87-.86a.87.87 0 0 0-.87-.87Z"/>
  </g>
  <defs>
    <clipPath id="a">
      <path fill="currentColor" d="M0 0h24v24H0z"/>
    </clipPath>
  </defs>
</svg>