<svg xmlns="http://www.w3.org/2000/svg" width="18" height="18" fill="none">
  <path fill="currentColor" d="M9 16.6c-.37 0-.73-.15-1.01-.4l-1.77-1.52c-1.6-1.38-3.01-2.53-4-3.71C1.07 9.57.51 8.24.51 6.75c0-1.43.5-2.78 1.4-3.77a4.85 4.85 0 0 1 6.47-.59c.23.17.42.34.62.56.2-.2.4-.4.62-.56a4.8 4.8 0 0 1 6.47.6c.93.98 1.4 2.33 1.4 3.76 0 1.5-.53 2.81-1.71 4.22-.99 1.18-2.4 2.36-4 3.71-.53.45-1.15.99-1.8 1.52-.25.25-.61.4-.98.4ZM5.51 2.66c-1.04 0-2 .42-2.7 1.16a4.37 4.37 0 0 0-1.04 2.92c0 1.15.45 2.25 1.4 3.4.94 1.1 2.29 2.25 3.83 3.57l1.8 1.55c.12.09.28.09.4 0l1.8-1.54c1.57-1.36 2.92-2.48 3.82-3.58a5.25 5.25 0 0 0 1.4-3.4c0-1.13-.39-2.17-1.06-2.9a3.62 3.62 0 0 0-2.67-1.18 3.5 3.5 0 0 0-2.08.7c-.26.2-.48.43-.7.68a.94.94 0 0 1-.71.34.9.9 0 0 1-.7-.34 5.28 5.28 0 0 0-.7-.67c-.6-.46-1.3-.7-2.09-.7Z"/>
</svg>