<svg xmlns="http://www.w3.org/2000/svg" width="24" height="24" fill="none">
  <path stroke="#637381" stroke-width="2" d="M16.76 3.4a4.9 4.9 0 0 1 3.62 1.56 5.7 5.7 0 0 1 1.46 3.93c0 1.45-.49 2.8-1.69 4.3l-.25.3a32.2 32.2 0 0 1-3.7 3.57l-1.58 1.34c-.74.62-1.62 1.35-2.49 2.1l-.06.06-.03.03a.2.2 0 0 1-.04.01.31.31 0 0 1-.14-.04l-.04-.03-1.28-1.09-1.2-1-1.57-1.34A35.07 35.07 0 0 1 4.3 13.8l-.24-.28c-1.4-1.66-1.95-3.1-1.95-4.64a5.7 5.7 0 0 1 1.46-3.93A4.9 4.9 0 0 1 7.2 3.4c.88 0 1.72.25 2.5.74l.32.23c.3.22.58.51.9.9.55.69 1.56.7 2.12.01.27-.33.58-.62.95-.95a4.45 4.45 0 0 1 2.77-.93Z"/>
</svg>