<svg xmlns="http://www.w3.org/2000/svg" width="24" height="24" fill="none">
  <path fill="currentColor" d="M12 10.5a4.99 4.99 0 0 1-5.06-4.91C6.94 2.89 9.19.67 12 .67a4.99 4.99 0 0 1 5.06 4.92c0 2.7-2.25 4.91-5.06 4.91Zm0-8.14A3.3 3.3 0 0 0 8.62 5.6 3.3 3.3 0 0 0 12 8.8a3.3 3.3 0 0 0 3.38-3.22A3.3 3.3 0 0 0 12 2.36ZM19.16 23.36H4.84c-.86 0-1.61-.71-1.61-1.61V17.1a5.19 5.19 0 0 1 5.17-5.18h7.16a5.19 5.19 0 0 1 5.18 5.18v4.65c0 .86-.71 1.61-1.58 1.61ZM4.95 21.67h14.14V17.1a3.5 3.5 0 0 0-3.49-3.49H8.4a3.5 3.5 0 0 0-3.49 3.49v4.57h.04Z"/>
</svg>