<svg xmlns="http://www.w3.org/2000/svg" width="18" height="18" fill="none">
  <path fill="currentColor" d="M16.48 3.23 13.75.73 13.7.7c-.2-.14-.42-.22-.62-.22H3.35c-1.18 0-2.14.95-2.14 2.14v12.7c0 1.19.96 2.15 2.14 2.15h11.3c1.18 0 2.14-.96 2.14-2.14V3.97a1 1 0 0 0-.3-.74Zm-5.26-1.46v1.6H5.34v-1.6h5.88ZM6.05 16.26v-5.2h5.9v5.17h-5.9v.03Zm9.48-.9c0 .47-.4.87-.88.87h-1.43V10.8a1 1 0 0 0-.99-.98H5.77a1 1 0 0 0-.99.98v5.46H3.35a.88.88 0 0 1-.87-.88V2.64c0-.47.39-.87.87-.87h.73v1.89a1 1 0 0 0 .98.98h6.44a1 1 0 0 0 .99-.98V1.77h.5l2.54 2.34v11.25Z"/>
  <path fill="currentColor" d="M10.15 11.95h-2.3a.65.65 0 0 0-.65.65c0 .37.28.65.65.65h2.3c.34 0 .65-.28.65-.65s-.3-.65-.65-.65ZM10.15 14.1h-2.3a.65.65 0 0 0-.65.64c0 .36.28.64.65.64h2.3c.34 0 .65-.28.65-.64 0-.37-.3-.65-.65-.65Z"/>
</svg>