<svg xmlns="http://www.w3.org/2000/svg" width="24" height="24" fill="none">
  <g clip-path="url(#a)">
    <path fill="#637381" d="m22.54 18.56-3.87-3.86a2.81 2.81 0 0 0-3.26-.52l-1.95-1.95a7.22 7.22 0 0 0-.56-9.53A7.2 7.2 0 0 0 2.77 12.94 7.28 7.28 0 0 0 7.84 15c1.57 0 3.15-.52 4.42-1.54l1.95 1.95a2.81 2.81 0 0 0 .52 3.26l3.87 3.87c.56.56 1.27.82 1.99.82.71 0 1.42-.26 1.98-.82a2.87 2.87 0 0 0-.03-3.98ZM3.94 11.7a5.5 5.5 0 0 1 7.76-7.76 5.5 5.5 0 0 1-7.76 7.76Zm17.4 9.64c-.42.41-1.13.45-1.58 0l-3.86-3.86a1.08 1.08 0 0 1 0-1.58 1.08 1.08 0 0 1 1.57 0l3.87 3.86c.41.45.41 1.13 0 1.58Z"/>
  </g>
  <defs>
    <clipPath id="a">
      <path fill="#fff" d="M0 0h24v24H0z"/>
    </clipPath>
  </defs>
</svg>