<svg xmlns="http://www.w3.org/2000/svg" width="16" height="16" fill="none">
  <g clip-path="url(#a)">
    <path fill="currentColor" stroke="currentColor" stroke-width=".67" d="M6.4 1.4a5.6 5.6 0 0 1 3.79 1.47l.2.2c2 1.97 2.17 5.11.57 7.3l-.2.26.26.2 4.12 3.35.03.04c.06.06.07.16.02.25l-.03.05a.2.2 0 0 1-.23.06l-.08-.05-4.17-3.36-.22-.18-.21.19a5.68 5.68 0 0 1-7.64.05l-.2-.2a5.66 5.66 0 0 1-.2-7.76l.2-.2A5.6 5.6 0 0 1 6.4 1.4Zm0 .47a5.16 5.16 0 0 0-3.84 8.65l.18.2a5.12 5.12 0 0 0 3.66 1.51 5.16 5.16 0 0 0 3.84-8.65l-.18-.19A5.12 5.12 0 0 0 6.4 1.87Z"/>
  </g>
  <defs>
    <clipPath id="a">
      <path fill="currentColor" d="M0 0h16v16H0z"/>
    </clipPath>
  </defs>
</svg>