<svg xmlns="http://www.w3.org/2000/svg" width="24" height="24" fill="none">
  <path fill="#637381" d="m21.15 20.21-1.54-13.2A2.84 2.84 0 0 0 16.8 4.5h-.83A3.92 3.92 0 0 0 12 .67a4.01 4.01 0 0 0-4.01 3.87h-.83a2.87 2.87 0 0 0-2.81 2.51l-1.5 13.16c-.11.79.15 1.58.67 2.18.53.6 1.32.93 2.1.93h12.72c.78 0 1.57-.33 2.1-.93.56-.6.82-1.39.71-2.18ZM12 2.36c1.24 0 2.25.98 2.32 2.18H9.67A2.3 2.3 0 0 1 12 2.36ZM6.04 7.2c.07-.56.56-1.01 1.12-1.01h9.68c.56 0 1.05.45 1.12 1.01l1.09 9.3H4.95l1.09-9.3ZM19.2 21.26c-.23.26-.53.38-.86.38H5.66c-.34 0-.64-.15-.86-.38-.23-.26-.3-.56-.26-.9l.26-2.17h14.44l.26 2.17c0 .34-.08.68-.3.9Z"/>
</svg>