<svg xmlns="http://www.w3.org/2000/svg" width="24" height="24" fill="none">
  <g clip-path="url(#a)">
    <path fill="#637381" fill-opacity=".75" d="M20.4.67H3.6A2.97 2.97 0 0 0 .64 3.64v16.8a2.94 2.94 0 0 0 2.96 2.92h16.8a2.93 2.93 0 0 0 2.93-2.92V3.6A2.93 2.93 0 0 0 20.4.67ZM2.33 20.4V3.6c0-.68.56-1.28 1.27-1.28h3v19.32h-3a1.26 1.26 0 0 1-1.27-1.24Zm19.35 0c0 .67-.57 1.24-1.24 1.24H8.29V2.32H20.4c.68 0 1.24.57 1.24 1.28v16.8h.04Z"/>
    <path fill="#87939E" d="M3 5h2v1H3zM3 7h2v1H3z"/>
  </g>
  <defs>
    <clipPath id="a">
      <path fill="#fff" d="M0 0h24v24H0z"/>
    </clipPath>
  </defs>
</svg>